<?xml version="1.0" encoding="iso-8859-1"?>
<!-- Uploaded to: SVG Repo, www.svgrepo.com, Generator: SVG Repo Mixer Tools -->
<svg xmlns="http://www.w3.org/2000/svg" xmlns:xlink="http://www.w3.org/1999/xlink" version="1.1" id="Layer_1"  viewBox="0 0 423.482 423.482" xml:space="preserve" width="512" height="512">
<g>
	<path style="fill:#3679A3;" d="M58.048,131.321V27.937C58.048,12.508,70.556,0,85.985,0h69.619   c11.483,0,21.801,7.031,26.005,17.726l5.5,14.016c4.205,10.682,14.522,17.714,26.005,17.714h124.374   c15.441,0,27.949,12.52,27.949,27.949v53.917"/>
	<path style="fill:#2C6F91;" d="M58.048,171.913V68.529c0-15.429,12.508-27.937,27.937-27.937h69.619   c11.483,0,21.801,7.031,26.005,17.726l5.5,14.016c4.205,10.682,14.522,17.714,26.005,17.714h124.374   c15.441,0,27.949,12.52,27.949,27.949v53.917"/>
	<path style="fill:#4288BC;" d="M58.048,197.88V88.885c0-15.429,12.508-27.937,27.937-27.937h69.619   c11.483,0,21.801,7.031,26.005,17.726l5.5,14.016c4.205,10.682,14.522,17.714,26.005,17.714h124.374   c15.441,0,27.949,12.52,27.949,27.949v59.528"/>
	<path style="fill:#3679A3;" d="M58.048,230.627V127.243c0-15.429,12.508-27.937,27.937-27.937h69.619   c11.483,0,21.801,7.031,26.005,17.726l5.5,14.016c4.205,10.682,14.522,17.714,26.005,17.714h124.374   c15.441,0,27.949,12.52,27.949,27.949v53.917"/>
	<path style="fill:#EAB96C;" d="M58.048,226.709v-76.874c0-15.429,12.508-27.937,27.937-27.937h69.619   c11.483,0,21.801,7.031,26.005,17.726l5.5,14.016c4.205,10.682,14.522,17.714,26.005,17.714h124.374   c15.441,0,27.949,12.52,27.949,27.949v27.407"/>
	<path style="fill:#2C6F91;" d="M113.03,0H85.985C70.556,0,58.048,12.508,58.048,27.937v76.874h27.045V27.937   C85.093,12.508,97.601,0,113.03,0z"/>
	<path style="fill:#3679A3;" d="M113.03,60.948H85.985c-15.429,0-27.937,12.508-27.937,27.937v76.874h27.045V88.885   C85.093,73.456,97.601,60.948,113.03,60.948z"/>
	<path style="fill:#D8A664;" d="M113.03,121.898H85.985c-15.429,0-27.937,12.508-27.937,27.937v76.874h27.045v-76.874   C85.093,134.406,97.601,121.898,113.03,121.898z"/>
	<rect x="39.499" y="225.625" style="fill:#E6E6E6;" width="344.484" height="197.857"/>
	<rect x="59.071" y="245.196" style="fill:#CCCCCC;" width="305.341" height="158.715"/>
	<g>
		<path style="fill:#666666;" d="M155.751,286.895c-0.949-2.182-3.103-3.594-5.483-3.594c-2.38,0-4.534,1.412-5.483,3.594    l-31.047,71.342c-1.318,3.028,0.068,6.552,3.097,7.87c3.028,1.319,6.551-0.069,7.869-3.097l9.514-21.862h32.099l9.514,21.862    c0.98,2.252,3.178,3.595,5.486,3.595c0.796,0,1.607-0.16,2.383-0.499c3.028-1.318,4.415-4.841,3.097-7.87L155.751,286.895z     M139.423,329.187l10.845-24.92l10.845,24.92H139.423z"/>
		<path style="fill:#666666;" d="M306.591,338.974c-3.043-1.287-6.55,0.137-7.837,3.178c-3.209,7.588-10.604,12.49-18.842,12.49    c-11.274,0-20.447-9.172-20.447-20.447v-19.283c0-11.274,9.173-20.447,20.447-20.447c6.803,0,13.143,3.372,16.958,9.019    c1.851,2.737,5.565,3.456,8.303,1.607c2.736-1.849,3.456-5.566,1.608-8.303c-6.043-8.944-16.087-14.284-26.869-14.284    c-17.869,0-32.408,14.538-32.408,32.407v19.283c0,17.87,14.538,32.408,32.408,32.408c13.053,0,24.772-7.769,29.857-19.791    C311.056,343.77,309.633,340.261,306.591,338.974z"/>
		<path style="fill:#666666;" d="M225.443,320.684h-21.746c-3.302,0-5.98,2.677-5.98,5.98s2.678,5.98,5.98,5.98h21.746    c3.302,0,5.98-2.677,5.98-5.98S228.745,320.684,225.443,320.684z"/>
	</g>
</g>















</svg>